<svg xmlns="http://www.w3.org/2000/svg" xmlns:xlink="http://www.w3.org/1999/xlink" width="55" height="55" viewBox="0 0 55 55"><defs><style>.a{fill:none;}.b{fill:#eaf7eb;}.c{clip-path:url(#a);}.d{fill:#31ab3f;}</style><clipPath id="a"><rect class="a" width="26" height="26"/></clipPath></defs><circle class="b" cx="27.5" cy="27.5" r="27.5"/><g class="c" transform="translate(14 14)"><path class="d" d="M21.126,26A1.536,1.536,0,0,1,19.5,24.375V9.75a1.536,1.536,0,0,1,1.626-1.625h3.25A1.535,1.535,0,0,1,26,9.75V24.375A1.535,1.535,0,0,1,24.375,26Zm-9.75,0A1.534,1.534,0,0,1,9.75,24.375V1.625A1.535,1.535,0,0,1,11.375,0h3.25A1.535,1.535,0,0,1,16.25,1.625v22.75A1.534,1.534,0,0,1,14.625,26Zm-9.75,0A1.535,1.535,0,0,1,0,24.375v-6.5A1.536,1.536,0,0,1,1.625,16.25h3.25A1.537,1.537,0,0,1,6.5,17.876v6.5A1.536,1.536,0,0,1,4.874,26Z"/></g></svg>