<svg xmlns="http://www.w3.org/2000/svg" width="55" height="55" viewBox="0 0 55 55"><defs><style>.a,.b{fill:#5c8ef2;}.a{opacity:0.201;}</style></defs><circle class="a" cx="27.5" cy="27.5" r="27.5"/><path class="b" d="M24.712,9.468a1.315,1.315,0,0,0-1.133-.9l-7.152-.649L13.6,1.3a1.317,1.317,0,0,0-2.423,0L8.351,7.914,1.2,8.563a1.319,1.319,0,0,0-.748,2.3l5.407,4.741L4.261,22.629a1.317,1.317,0,0,0,1.96,1.424l6.168-3.688,6.166,3.688a1.318,1.318,0,0,0,1.961-1.424l-1.594-7.021,5.407-4.741A1.319,1.319,0,0,0,24.712,9.468Zm-12.2,10.827" transform="translate(14.997 14.987)"/></svg>