<svg xmlns="http://www.w3.org/2000/svg" xmlns:xlink="http://www.w3.org/1999/xlink" width="55" height="55" viewBox="0 0 55 55"><defs><style>.a{fill:none;}.b,.d{fill:#5c8ef2;}.b{opacity:0.201;}.c{clip-path:url(#a);}</style><clipPath id="a"><rect class="a" width="19" height="23"/></clipPath></defs><circle class="b" cx="27.5" cy="27.5" r="27.5"/><g class="c" transform="translate(18 15.059)"><path class="d" d="M0,23a8.624,8.624,0,0,1,8.571-8.625h2.857A8.624,8.624,0,0,1,20,23Zm3.713-2.876H16.428a5.755,5.755,0,0,0-5-2.875H8.714A5.758,5.758,0,0,0,3.713,20.124ZM4.285,7.187V5.749a5.715,5.715,0,1,1,11.429,0V7.187a5.715,5.715,0,1,1-11.429,0ZM7.142,5.749V7.187a2.858,2.858,0,1,0,5.715,0V5.749a2.858,2.858,0,1,0-5.715,0Z"/></g></svg>